<?xml version="1.0" encoding="utf-8"?>
<!-- Svg Vector Icons : http://www.onlinewebfonts.com/icon -->
<!DOCTYPE svg PUBLIC "-//W3C//DTD SVG 1.1//EN" "http://www.w3.org/Graphics/SVG/1.1/DTD/svg11.dtd">
<svg version="1.1" xmlns="http://www.w3.org/2000/svg" xmlns:xlink="http://www.w3.org/1999/xlink" x="0px" y="0px" viewBox="0 0 1000 1000" enable-background="new 0 0 1000 1000" xml:space="preserve">
<metadata> Svg Vector Icons : http://www.onlinewebfonts.com/icon </metadata>
<g><g transform="translate(0.000000,512.000000) scale(0.100000,-0.100000)"><path d="M1826,5016.7c-21.1-5.8-107.4-23-189.9-38.4c-335.6-65.2-663.6-241.6-937.8-504.4c-285.8-276.2-483.3-623.3-563.8-999.2C101.9,3321.4,100,3139.2,100,118.7s1.9-3202.7,34.5-3356.1C268.8-3860.7,729-4407.2,1321.6-4647c356.7-143.8,111.2-134.2,3678.3-134.2c3020.5,0,3202.7,1.9,3356.1,34.5c623.3,134.2,1169.8,594.5,1409.6,1187.1c143.8,356.7,134.2,111.2,134.2,3678.3c0,3014.8-1.9,3202.7-34.5,3354.2c-76.7,358.6-247.4,675.1-510.1,947.4c-193.7,201.4-420,356.7-661.6,456.4c-370.1,151.5-78.6,140-3645.7,143.8C3296.9,5022.5,1847.1,5020.6,1826,5016.7z M8310,4592.9c397-107.4,721.1-333.7,939.7-661.6c109.3-163,172.6-306.8,224.4-512l42.2-164.9V118.7v-3135.6l-42.2-164.9c-76.7-301.1-212.9-542.8-421.9-751.8c-209-211-454.5-347.1-751.8-420c-151.5-38.4-218.6-42.2-845.7-42.2l-680.8-1.9l-5.8,1866l-3.8,1864.1h479.4c262.7,0,479.4,3.8,479.4,9.6s55.6,347.1,124.6,757.5c69,410.4,124.7,759.5,124.7,776.7c0,24.9-71,28.8-604.1,28.8h-604.1v218.6c0,120.8,7.7,241.6,17.3,266.6c32.6,82.5,107.4,95.9,659.7,105.5l512.1,7.7v659.7c0,362.5-3.8,659.7-7.7,659.7s-117,28.8-249.3,65.2c-805.5,222.5-1503.5,226.3-1925.4,13.4c-322.2-163-537-416.2-654-769c-74.8-228.2-97.8-402.7-111.2-818.9L4994.2,905h-295.3h-293.4V118.7v-786.3h297.3h297.3v-1871.7v-1869.8l-1576.4,7.7c-1538.1,5.8-1582.2,7.7-1733.7,47.9c-395.1,103.6-721.1,331.8-939.7,659.7c-109.3,163-172.6,306.8-224.4,512.1l-42.2,164.9V118.7v3135.6l42.2,164.9c76.7,301.1,212.9,542.7,421.9,751.8c262.7,264.7,586.8,416.2,964.6,454.5c78.6,7.7,1515,13.4,3193.1,11.5l3049.3-3.8L8310,4592.9z M7176.6,2604.2c138.1-24.9,278.1-53.7,312.6-61.4l61.4-11.5v-322.2v-322.2l-349-9.6c-395.1-9.6-494.8-30.7-630.9-134.2c-47.9-36.4-105.5-105.5-132.3-159.2c-46-92.1-47.9-103.6-53.7-586.8l-5.7-494.8h569.6H7518l-11.5-51.8c-5.8-30.7-34.5-203.3-63.3-383.6l-53.7-331.8h-504.4h-504.4l-3.8-2065.4l-5.7-2067.4h-489h-489l-5.8,2067.4l-3.8,2065.4h-287.7h-287.7v383.6v383.6h287.7h287.7v350.9c0,452.6,26.9,859.2,67.1,1024.1c105.5,427.7,368.2,686.6,780.5,765.2C6438.3,2680.9,6865.9,2665.5,7176.6,2604.2z"/></g></g>
</svg>