<?xml version="1.0" encoding="iso-8859-1"?>
<!-- Generator: Adobe Illustrator 21.0.0, SVG Export Plug-In . SVG Version: 6.00 Build 0)  -->
<svg xmlns="http://www.w3.org/2000/svg" xmlns:xlink="http://www.w3.org/1999/xlink" version="1.1" id="Capa_1" x="0px" y="0px" viewBox="0 0 512.001 512.001" style="enable-background:new 0 0 512.001 512.001;" xml:space="preserve" width="512" height="512">
<g>
	<g>
		<path style="fill:#FC1D5A;" d="M481.04,250.527c21.176-24.986,32.136-56.833,30.861-89.671    c-1.282-33.029-14.868-64.098-38.253-87.483c-51.055-51.055-134.127-51.055-185.182,0L256,105.838l-32.466-32.466    C198.802,48.64,165.919,35.02,130.943,35.02S63.084,48.64,38.353,73.372S0,130.987,0,165.963s13.621,67.859,38.314,92.553    l216.906,218.465L481.04,250.527z"/>
		<path style="fill:#DD0057;" d="M481.04,250.527c21.176-24.986,32.136-56.833,30.861-89.671    c-1.282-33.029-14.868-64.098-38.253-87.483c-51.055-51.055-134.127-51.055-185.182,0L256,105.838l-0.779,371.143L481.04,250.527z    "/>
	</g>
	<g>
		<g>
			<path style="fill:#0082FF;" d="M403.552,198.334c-59.798,0-108.447,48.649-108.447,108.447     c0,59.798,48.649,108.448,108.447,108.448C463.351,415.229,512,366.58,512,306.781C512,246.984,463.351,198.334,403.552,198.334z     "/>
			<path style="fill:#005FE4;" d="M403.552,198.334v216.895C463.351,415.229,512,366.58,512,306.781     C512,246.984,463.351,198.334,403.552,198.334z"/>
		</g>
		<polygon style="fill:#FFFFFF;" points="444.167,291.781 418.396,291.781 418.396,266.01 388.396,266.01 388.396,291.781     362.625,291.781 362.625,321.781 388.396,321.781 388.396,347.553 418.396,347.553 418.396,321.781 444.167,321.781   "/>
		<polygon style="fill:#E9EDF5;" points="418.396,291.781 418.396,266.01 403.206,266.01 403.206,347.553 418.396,347.553     418.396,321.781 444.167,321.781 444.167,291.781   "/>
	</g>
</g>















</svg>
